<svg xmlns="http://www.w3.org/2000/svg" xmlns:xlink="http://www.w3.org/1999/xlink" viewBox="0 0 1080 974.43"><defs><style>      .st0 {        isolation: isolate;      }      .st1 {        fill: #85a5ff;      }      .st2 {        fill: #fff;      }      .st3 {        mix-blend-mode: darken;      }    </style></defs><g class="st0"><g id="TB_x5F_logo"><g><path class="st2" d="M562.23,421.21l-22.9,11.6c-3.64,1.85-7.41,3.35-11.28,4.49l-83.54,53.82v322.98l22.95-13.25,161.8-93.44v-320.16l-67.03,33.96ZM482.07,681.78l-5.42-8.41,112.22-72.29,5.41,8.4-112.21,72.3ZM482.07,631.75l-5.42-8.41,112.22-72.29,5.41,8.4-112.21,72.3ZM482.07,581.72l-5.42-8.41,112.22-72.29,5.41,8.4-112.21,72.3Z"></path><image width="449" height="261" transform="translate(278.94 96.51)"></image><path class="st1" d="M909.63,801.14c-18.94,19.72-48.7,29.71-88.45,29.71h-344.64l179.51-103.79,170.62-.19v-10s-166.96.18-166.96.18v-145.74h116.93v-10h-116.93v-149.63l72.74-59.4-6.32-7.74-66.42,54.23v-28.95c.63-.53,1.24-1.07,1.85-1.63.54-.48,1.06-.97,1.58-1.48.22-.21.42-.41.63-.62.21-.2.41-.42.61-.63.16-.15.31-.3.44-.45.36-.36.7-.73,1.03-1.1.22-.24.44-.47.64-.71.2-.21.38-.43.57-.64.17-.19.33-.38.49-.58.07-.08.15-.17.21-.26.45-.53.88-1.06,1.3-1.6.47-.59.93-1.19,1.36-1.8.9-1.21,1.74-2.46,2.54-3.73.38-.59.74-1.19,1.09-1.8.04-.06.08-.13.12-.2.37-.63.73-1.27,1.07-1.91h.01c.34-.64.67-1.28.98-1.92.03-.06.06-.12.09-.18.3-.6.59-1.21.87-1.82.07-.15.14-.3.21-.46.26-.59.52-1.19.77-1.79.26-.63.51-1.27.75-1.92.05-.12.1-.25.15-.38.25-.66.48-1.33.71-2.01,4.38-13.03,4.63-26.8.87-39.69-.17-.6-.36-1.2-.55-1.79-.09-.29-.19-.59-.29-.88-.46-1.37-.97-2.73-1.53-4.08-.52-1.28-1.09-2.54-1.7-3.79-.12-.26-.25-.52-.38-.78l-11.71-23.11c-.22-.44-.45-.88-.69-1.31-.21-.41-.43-.81-.66-1.21-.06-.11-.13-.23-.19-.34-1.16-2.05-2.43-4.03-3.82-5.94-1.41-1.99-2.95-3.9-4.58-5.71l-.02.02c-1.3-1.44-2.67-2.82-4.09-4.14,37.45-10.17,104.28-18.48,144.97,34.13,22.37,28.94,31.35,61.14,25.96,93.13-5.26,31.21-24.38,61.78-52.19,84.3.22-.01.45-.01.67-.01,25.39,0,72.67,3.98,103.04,30.77,17.63,15.54,26.92,36.51,27.62,62.31.87,32.17-7.85,56.98-25.92,73.74-9.44,8.75-20.28,14.24-30.67,17.66,6.92,1.43,14.25,3.29,21.64,5.7,43.05,14.03,66.56,40.02,67.98,75.17,1.34,33.04-6.71,58.88-23.91,76.79Z"></path><g class="st3"><image width="540" height="674" transform="translate(434.94 198.51)"></image></g><path class="st2" d="M239.76,392.4v242.7c-3.37,1.73-6.88,3.77-10.45,6.07v-254.81l10.45,6.04Z"></path><path d="M266.99,629.91c-.22-.11-.46-.2-.69-.3.01,0,.03.01.05.02.05.01.09.03.13.05.17.07.35.14.51.23Z"></path><path class="st2" d="M371.23,622.1h0s.11.01.11.01h0s-.11-.01-.11-.01ZM371.23,622.1h0s.11.01.11.01h0s-.11-.01-.11-.01ZM371.23,622.1h0s.11.01.11.01h0s-.11-.01-.11-.01ZM371.23,622.1h0s.11.01.11.01h0s-.11-.01-.11-.01ZM371.23,622.1h0s.11.01.11.01h0s-.11-.01-.11-.01ZM371.23,622.1h0s.11.01.11.01h0s-.11-.01-.11-.01ZM371.23,622.1h0s.11.01.11.01h0s-.11-.01-.11-.01ZM371.23,622.1h0s.11.01.11.01h0s-.11-.01-.11-.01ZM371.23,622.1h0s.11.01.11.01h0s-.11-.01-.11-.01ZM371.23,622.1h0s.11.01.11.01h0s-.11-.01-.11-.01ZM371.23,622.1h0s.11.01.11.01h0s-.11-.01-.11-.01ZM371.23,622.1h0s.11.01.11.01h0s-.11-.01-.11-.01ZM371.23,622.1h0s.11.01.11.01h0s-.11-.01-.11-.01ZM371.23,622.1h0s.11.01.11.01h0s-.11-.01-.11-.01ZM371.23,622.1h0s.11.01.11.01h0s-.11-.01-.11-.01ZM389.93,599.24v-11.41h-11.43v-11.43h-11.26v-11.43h-11.43v-11.44h-11.44v-11.39h-11.43v-11.44h-11.44v-11.43h-11.43v-11.44h-11.44v126.27h15.76v-11.44h11.44v-11.43h11.43v11.43h11.32v22.65h11.33v22.08h22.64v-22.65h-11.32v-22.63h-11.32v-22.87h30.02ZM389.93,599.24v-11.41h-11.43v-11.43h-11.26v-11.43h-11.43v-11.44h-11.44v-11.39h-11.43v-11.44h-11.44v-11.43h-11.43v-11.44h-11.44v126.27h15.76v-11.44h11.44v-11.43h11.43v11.43h11.32v22.65h11.33v22.08h22.64v-22.65h-11.32v-22.63h-11.32v-22.87h30.02ZM371.23,622.1h0s.11.01.11.01h0s-.11-.01-.11-.01ZM371.23,622.1h0s.11.01.11.01h0s-.11-.01-.11-.01ZM389.93,599.24v-11.41h-11.43v-11.43h-11.26v-11.43h-11.43v-11.44h-11.44v-11.39h-11.43v-11.44h-11.44v-11.43h-11.43v-11.44h-11.44v126.27h15.76v-11.44h11.44v-11.43h11.43v11.43h11.32v22.65h11.33v22.08h22.64v-22.65h-11.32v-22.63h-11.32v-22.87h30.02ZM389.93,599.24v-11.41h-11.43v-11.43h-11.26v-11.43h-11.43v-11.44h-11.44v-11.39h-11.43v-11.44h-11.44v-11.43h-11.43v-11.44h-11.44v126.27h15.76v-11.44h11.44v-11.43h11.43v11.43h11.32v22.65h11.33v22.08h22.64v-22.65h-11.32v-22.63h-11.32v-22.87h30.02ZM371.23,622.1h0s.11.01.11.01h0s-.11-.01-.11-.01ZM371.23,622.1h0s.11.01.11.01h0s-.11-.01-.11-.01ZM389.93,599.24v-11.41h-11.43v-11.43h-11.26v-11.43h-11.43v-11.44h-11.44v-11.39h-11.43v-11.44h-11.44v-11.43h-11.43v-11.44h-11.44v126.27h15.76v-11.44h11.44v-11.43h11.43v11.43h11.32v22.65h11.33v22.08h22.64v-22.65h-11.32v-22.63h-11.32v-22.87h30.02ZM389.93,599.24v-11.41h-11.43v-11.43h-11.26v-11.43h-11.43v-11.44h-11.44v-11.39h-11.43v-11.44h-11.44v-11.43h-11.43v-11.44h-11.44v126.27h15.76v-11.44h11.44v-11.43h11.43v11.43h11.32v22.65h11.33v22.08h22.64v-22.65h-11.32v-22.63h-11.32v-22.87h30.02ZM371.23,622.1h0s.11.01.11.01h0s-.11-.01-.11-.01ZM371.23,622.1h0s.11.01.11.01h0s-.11-.01-.11-.01ZM389.93,599.24v-11.41h-11.43v-11.43h-11.26v-11.43h-11.43v-11.44h-11.44v-11.39h-11.43v-11.44h-11.44v-11.43h-11.43v-11.44h-11.44v126.27h15.76v-11.44h11.44v-11.43h11.43v11.43h11.32v22.65h11.33v22.08h22.64v-22.65h-11.32v-22.63h-11.32v-22.87h30.02ZM389.93,599.24v-11.41h-11.43v-11.43h-11.26v-11.43h-11.43v-11.44h-11.44v-11.39h-11.43v-11.44h-11.44v-11.43h-11.43v-11.44h-11.44v126.27h15.76v-11.44h11.44v-11.43h11.43v11.43h11.32v22.65h11.33v22.08h22.64v-22.65h-11.32v-22.63h-11.32v-22.87h30.02ZM371.23,622.1h0s.11.01.11.01h0s-.11-.01-.11-.01ZM371.23,622.1h0s.11.01.11.01h0s-.11-.01-.11-.01ZM389.93,599.24v-11.41h-11.43v-11.43h-11.26v-11.43h-11.43v-11.44h-11.44v-11.39h-11.43v-11.44h-11.44v-11.43h-11.43v-11.44h-11.44v126.27h15.76v-11.44h11.44v-11.43h11.43v11.43h11.32v22.65h11.33v22.08h22.64v-22.65h-11.32v-22.63h-11.32v-22.87h30.02ZM389.93,599.24v-11.41h-11.43v-11.43h-11.26v-11.43h-11.43v-11.44h-11.44v-11.39h-11.43v-11.44h-11.44v-11.43h-11.43v-11.44h-11.44v126.27h15.76v-11.44h11.44v-11.43h11.43v11.43h11.32v22.65h11.33v22.08h22.64v-22.65h-11.32v-22.63h-11.32v-22.87h30.02ZM371.34,622.1h-.11s.11.01.11.01h0ZM249.76,372.1v258.65c2.2-.83,4.27-1.43,6.2-1.79,1.64-.31,3.18-.46,4.62-.46.32,0,.64.01.95.03.48.03.95.08,1.41.15.15.01.3.03.44.06.26.04.51.09.76.16.29.06.57.13.85.22.22.06.43.13.64.2.59.2,1.16.45,1.7.75.03.02.07.03.1.05.04.02.09.04.13.07.18.09.36.19.53.3.15.1.31.19.46.3.3.2.59.43.87.66,11.73,9.86-.19,35.58-13.98,65.36-1.67,3.6-3.37,7.29-5.04,10.97l184.11,106.32v-322.98l-184.75-119.02ZM401.36,610.67h-30.02v11.43h11.21v22.64h11.32v22.65h-11.32v11.32h-22.64v-10.76h-11.33v-22.64h-11.32v-22.65h-11.43v11.44h-11.44v11.43h-27.19v-160.57h11.43v11.44h11.44v11.43h11.43v11.44h11.44v11.43h11.43v11.4h11.44v11.43h11.43v11.44h11.44v11.43h11.25v11.43h11.43v22.84ZM371.23,622.11h-11.32v-22.87h30.02v-11.41h-11.43v-11.43h-11.26v-11.43h-11.43v-11.44h-11.44v-11.39h-11.43v-11.44h-11.44v-11.43h-11.43v-11.44h-11.44v126.27h15.76v-11.44h11.44v-11.43h11.43v11.43h11.32v22.65h11.33v22.08h22.64v-22.65h-11.32v-22.63ZM371.23,622.11h.11s-.11-.01-.11-.01h0ZM371.23,622.1h0s.11.01.11.01h0s-.11-.01-.11-.01ZM389.93,599.24v-11.41h-11.43v-11.43h-11.26v-11.43h-11.43v-11.44h-11.44v-11.39h-11.43v-11.44h-11.44v-11.43h-11.43v-11.44h-11.44v126.27h15.76v-11.44h11.44v-11.43h11.43v11.43h11.32v22.65h11.33v22.08h22.64v-22.65h-11.32v-22.63h-11.32v-22.87h30.02ZM389.93,599.24v-11.41h-11.43v-11.43h-11.26v-11.43h-11.43v-11.44h-11.44v-11.39h-11.43v-11.44h-11.44v-11.43h-11.43v-11.44h-11.44v126.27h15.76v-11.44h11.44v-11.43h11.43v11.43h11.32v22.65h11.33v22.08h22.64v-22.65h-11.32v-22.63h-11.32v-22.87h30.02ZM371.23,622.1h0s.11.01.11.01h0s-.11-.01-.11-.01ZM371.23,622.1h0s.11.01.11.01h0s-.11-.01-.11-.01ZM389.93,599.24v-11.41h-11.43v-11.43h-11.26v-11.43h-11.43v-11.44h-11.44v-11.39h-11.43v-11.44h-11.44v-11.43h-11.43v-11.44h-11.44v126.27h15.76v-11.44h11.44v-11.43h11.43v11.43h11.32v22.65h11.33v22.08h22.64v-22.65h-11.32v-22.63h-11.32v-22.87h30.02ZM389.93,599.24v-11.41h-11.43v-11.43h-11.26v-11.43h-11.43v-11.44h-11.44v-11.39h-11.43v-11.44h-11.44v-11.43h-11.43v-11.44h-11.44v126.27h15.76v-11.44h11.44v-11.43h11.43v11.43h11.32v22.65h11.33v22.08h22.64v-22.65h-11.32v-22.63h-11.32v-22.87h30.02ZM371.23,622.1h0s.11.01.11.01h0s-.11-.01-.11-.01ZM371.23,622.1h0s.11.01.11.01h0s-.11-.01-.11-.01ZM389.93,599.24v-11.41h-11.43v-11.43h-11.26v-11.43h-11.43v-11.44h-11.44v-11.39h-11.43v-11.44h-11.44v-11.43h-11.43v-11.44h-11.44v126.27h15.76v-11.44h11.44v-11.43h11.43v11.43h11.32v22.65h11.33v22.08h22.64v-22.65h-11.32v-22.63h-11.32v-22.87h30.02ZM389.93,599.24v-11.41h-11.43v-11.43h-11.26v-11.43h-11.43v-11.44h-11.44v-11.39h-11.43v-11.44h-11.44v-11.43h-11.43v-11.44h-11.44v126.27h15.76v-11.44h11.44v-11.43h11.43v11.43h11.32v22.65h11.33v22.08h22.64v-22.65h-11.32v-22.63h-11.32v-22.87h30.02ZM371.23,622.1h0s.11.01.11.01h0s-.11-.01-.11-.01ZM371.23,622.1h0s.11.01.11.01h0s-.11-.01-.11-.01ZM389.93,599.24v-11.41h-11.43v-11.43h-11.26v-11.43h-11.43v-11.44h-11.44v-11.39h-11.43v-11.44h-11.44v-11.43h-11.43v-11.44h-11.44v126.27h15.76v-11.44h11.44v-11.43h11.43v11.43h11.32v22.65h11.33v22.08h22.64v-22.65h-11.32v-22.63h-11.32v-22.87h30.02ZM389.93,599.24v-11.41h-11.43v-11.43h-11.26v-11.43h-11.43v-11.44h-11.44v-11.39h-11.43v-11.44h-11.44v-11.43h-11.43v-11.44h-11.44v126.27h15.76v-11.44h11.44v-11.43h11.43v11.43h11.32v22.65h11.33v22.08h22.64v-22.65h-11.32v-22.63h-11.32v-22.87h30.02ZM371.23,622.1h0s.11.01.11.01h0s-.11-.01-.11-.01ZM371.23,622.1h0s.11.01.11.01h0s-.11-.01-.11-.01ZM389.93,599.24v-11.41h-11.43v-11.43h-11.26v-11.43h-11.43v-11.44h-11.44v-11.39h-11.43v-11.44h-11.44v-11.43h-11.43v-11.44h-11.44v126.27h15.76v-11.44h11.44v-11.43h11.43v11.43h11.32v22.65h11.33v22.08h22.64v-22.65h-11.32v-22.63h-11.32v-22.87h30.02ZM389.93,599.24v-11.41h-11.43v-11.43h-11.26v-11.43h-11.43v-11.44h-11.44v-11.39h-11.43v-11.44h-11.44v-11.43h-11.43v-11.44h-11.44v126.27h15.76v-11.44h11.44v-11.43h11.43v11.43h11.32v22.65h11.33v22.08h22.64v-22.65h-11.32v-22.63h-11.32v-22.87h30.02ZM371.23,622.1h0s.11.01.11.01h0s-.11-.01-.11-.01ZM371.23,622.1h0s.11.01.11.01h0s-.11-.01-.11-.01ZM371.23,622.1h0s.11.01.11.01h0s-.11-.01-.11-.01ZM371.23,622.1h0s.11.01.11.01h0s-.11-.01-.11-.01ZM371.23,622.1h0s.11.01.11.01h0s-.11-.01-.11-.01ZM371.23,622.1h0s.11.01.11.01h0s-.11-.01-.11-.01ZM371.23,622.1h0s.11.01.11.01h0s-.11-.01-.11-.01ZM371.23,622.1h0s.11.01.11.01h0s-.11-.01-.11-.01ZM371.23,622.1h0s.11.01.11.01h0s-.11-.01-.11-.01ZM371.23,622.1h0s.11.01.11.01h0s-.11-.01-.11-.01ZM371.23,622.1h0s.11.01.11.01h0s-.11-.01-.11-.01ZM371.23,622.1h0s.11.01.11.01h0s-.11-.01-.11-.01ZM371.23,622.1h0s.11.01.11.01h0s-.11-.01-.11-.01Z"></path><path class="st1" d="M238.94,736.29c-.08.26-.16.51-.23.77-.17.55-.33,1.09-.48,1.62-.14.48-.27.93-.39,1.39-.29,1.12-.56,2.2-.79,3.25-.05.25-.11.5-.16.75-.34,1.7-.59,3.32-.73,4.83-.04.38-.06.75-.08,1.11,0,.07,0,.14,0,.2-.01.2-.02.4-.02.6-.05,1.96.14,3.71.59,5.21l-7.82,2.35c-.07-.24-.14-.49-.21-.74-.05-.22-.11-.44-.15-.67-.07-.28-.12-.56-.17-.85-.14-.78-.23-1.59-.3-2.42-.03-.37-.05-.75-.07-1.12-.01-.36-.02-.73-.02-1.11,0-3.58.59-7.56,1.64-11.86.15-.62.31-1.25.48-1.89.06-.23.13-.46.19-.7.17-.61.35-1.23.54-1.85.29-1.01.61-2.03.95-3.06,1-3.07,2.16-6.26,3.46-9.55,1.4-3.57,2.96-7.24,4.6-11,.32-.74.65-1.48.98-2.22.54-1.22,1.09-2.44,1.65-3.67.12-.27.25-.55.37-.82.68-1.51,1.38-3.03,2.08-4.55,1.05-2.29,2.12-4.59,3.19-6.91.58-1.25,1.16-2.5,1.73-3.74,5.61-12.14,10.76-23.54,13.75-33.11,3.97-12.68,2.55-17.23.65-18.83-1.49-1.25-6.29-1.47-14.4,1.74-2.91,1.15-6.24,2.74-10,4.88-3.18,1.81-6.66,4.01-10.45,6.68-.7.49-1.41.99-2.13,1.52h.01s-3.07,2.37-3.07,2.37l-4.77,3.65v-9.45c-.65.51-1.31,1.03-1.97,1.55s-1.32,1.05-1.98,1.59c-9.9,8.06-19.81,17.51-28.5,27.26-.93,1.05-1.84,2.09-2.74,3.14-3.02,3.52-5.87,7.06-8.48,10.57-.96,1.3-1.9,2.6-2.79,3.89,0,0-.01,0-.01.01-.34.48-.67.97-1,1.45-.98,1.45-1.92,2.89-2.81,4.31-.79,1.27-1.54,2.53-2.25,3.77-.35.63-.7,1.24-1.03,1.86-17.85,33-30.14,80.1-6.04,104.19,14.94,14.95,66.97,17.69,145.55,17.69,13.24,0,27.25-.08,41.95-.19,14.46-.1,38.31-.22,53.69-.23l-162-93.66ZM188.79,791.04c-2.89,0-5.23-2.34-5.23-5.23s2.34-5.23,5.23-5.23,5.23,2.34,5.23,5.23-2.34,5.23-5.23,5.23ZM207.4,763.04c-4.15,2-10.5-2.58-14.18-10.22-3.69-7.64-3.32-15.46.83-17.46,4.15-2,10.5,2.58,14.18,10.22,3.69,7.64,3.31,15.46-.83,17.46Z"></path><path d="M778.7,364.82c7.19.11,10.01-13.4,9.35-22.77s-5.01-19.17-12.16-18.37c-7.16.8-10.24,11.45-8.99,23.14,1.25,11.68,4.61,17.89,11.8,18.01Z"></path><g class="st3"><image width="337" height="276" transform="translate(104.94 595.51)"></image></g><circle cx="772.07" cy="388.35" r="7.39"></circle><circle cx="845.39" cy="529.83" r="6.31"></circle><ellipse cx="867" cy="765.55" rx="16.26" ry="10.63" transform="translate(-229.49 1133.62) rotate(-60)"></ellipse><ellipse cx="625.84" cy="800.14" rx="17.99" ry="9.77"></ellipse><circle cx="684.4" cy="792.27" r="7.87"></circle><path d="M207.4,763.04c-4.15,2-10.5-2.58-14.18-10.22-3.69-7.64-3.32-15.46.83-17.46,4.15-2,10.5,2.58,14.18,10.22,3.69,7.64,3.31,15.46-.83,17.46Z"></path><path d="M194.02,785.81c0,2.89-2.34,5.23-5.23,5.23s-5.23-2.34-5.23-5.23,2.34-5.23,5.23-5.23,5.23,2.34,5.23,5.23Z"></path><path class="st1" d="M667.55,294.27c-.14-.3-.27-.56-.4-.82l-11.58-22.85c-2.27-4.49-5.12-8.64-8.45-12.34l7.41-6.67c-1.3-1.44-2.67-2.82-4.09-4.14-5.86-5.45-12.68-9.84-20.15-12.9-2.23-.92-4.53-1.72-6.87-2.39.7,1.13,1.35,2.3,1.96,3.51,2.9,5.74,4.66,11.88,5.25,18.12.61,6.47-.04,13.07-1.98,19.45-4.05,13.31-13.12,24.1-25.52,30.39-.05.03-.1.05-.15.07-7.15,3.6-14.87,5.41-22.65,5.41-5.3,0-10.61-.84-15.79-2.54-12.84-4.2-23.27-13.15-29.37-25.19-3.13-6.18-4.93-12.83-5.36-19.57l-10.06,3.07-.41.12-.38.19c5.89,4.53,10.75,10.37,14.21,17.2,5.92,11.68,7.08,25.02,3.28,37.57-4.06,13.31-13.13,24.1-25.53,30.39-7.31,3.7-15.1,5.45-22.77,5.45-18.47,0-36.29-10.14-45.19-27.7-1.55-3.06-2.77-6.24-3.66-9.48-.96,1.76-1.84,3.55-2.63,5.38-7.82,18.01-7.38,38.92,1.63,56.68l11.56,22.81c.14.3.3.61.45.9l.06.1c8.18,15.53,21.91,27.02,38.65,32.36,5.43,1.73,10.97,2.74,16.51,3.06l4.58-2.95-.09-6.95c1.38-.02,2.78-.09,4.14-.21l1.43-.14c2.81-.31,5.59-.84,8.31-1.58,3.74-1.01,7.4-2.41,10.91-4.19l30.62-15.51,35.16-17.81.04-.02,28.63-14.51,10-5.07,2.99-1.51c27.38-13.87,38.73-47.6,25.3-75.19ZM562.28,320.95c3.41-1.73,7.58-.36,9.3,3.05,1.73,3.41.37,7.58-3.04,9.31-3.42,1.72-7.58.36-9.31-3.05s-.36-7.58,3.05-9.31ZM545.82,329.29c3.41-1.73,7.58-.36,9.31,3.05,1.73,3.41.36,7.58-3.05,9.3-3.41,1.73-7.58.37-9.31-3.04-1.73-3.42-.36-7.58,3.05-9.31ZM610.99,328.62l-76.22,38.62,11.74,23.16,13.88,5.75-3.82,9.24-10.92-4.52-4.13,10.3-9.28-3.72,5.16-12.89-11.55-22.8-5.48,2.78c-5.23,2.64-10.92,3.96-16.6,3.96-6.09,0-12.16-1.51-17.66-4.53l4.81-8.76c7.73,4.24,17.05,4.4,24.93.41l90.62-45.92c7.88-3.99,13.27-11.59,14.42-20.35l9.91,1.31c-1.58,12.03-8.99,22.48-19.81,27.96Z"></path><path d="M552.08,341.64c-3.41,1.73-7.58.37-9.31-3.04-1.73-3.42-.36-7.58,3.05-9.31,3.41-1.73,7.58-.36,9.31,3.05,1.73,3.41.36,7.58-3.05,9.3Z"></path><path d="M568.54,333.31c-3.42,1.72-7.58.36-9.31-3.05s-.36-7.58,3.05-9.31c3.41-1.73,7.58-.36,9.3,3.05,1.73,3.41.37,7.58-3.04,9.31Z"></path><path d="M630.8,300.66c-1.58,12.03-8.99,22.48-19.81,27.96l-76.22,38.62,11.74,23.16,13.88,5.75-3.82,9.24-10.92-4.52-4.13,10.3-9.28-3.72,5.16-12.89-11.55-22.8-5.48,2.78c-5.23,2.64-10.92,3.96-16.6,3.96-6.09,0-12.16-1.51-17.66-4.53l4.81-8.76c7.73,4.24,17.05,4.4,24.93.41l90.62-45.92c7.88-3.99,13.27-11.59,14.42-20.35l9.91,1.31Z"></path><path class="st2" d="M526.88,317.05c-2.68,8.79-8.1,16.21-15.48,21.37.02-.48.03-.97.03-1.46,0-23.03-18.66-41.69-41.69-41.69-8.11,0-15.67,2.32-22.07,6.33.26-2.81.8-5.62,1.65-8.37,3.28-10.58,10.53-19.16,20.41-24.17,5.77-2.93,12.01-4.4,18.3-4.4,4.24,0,8.51.67,12.66,2.03,10.29,3.37,18.66,10.55,23.56,20.22,4.75,9.37,5.68,20.08,2.63,30.14Z"></path><path class="st2" d="M619.09,270.33c-2.64,8.64-7.91,15.96-15.09,21.11.01-.51.03-1.01.03-1.52,0-23.03-18.66-41.69-41.69-41.69-8.27,0-15.97,2.42-22.46,6.57.26-2.78.8-5.56,1.65-8.29,3.28-10.58,10.53-19.16,20.41-24.17,5.86-2.97,12.11-4.38,18.27-4.38,14.81,0,29.11,8.14,36.25,22.23,4.75,9.37,5.68,20.08,2.63,30.14Z"></path><path d="M758.01,191.15l-1.5-4.95-4.9,1.66c-1.96.66-5.14,1.79-8.83,3.25,4.03-7.75,5.65-14.24,5.77-14.76l-9.72-2.36c-.05.2-4.54,18.03-17.19,27.96-.3.22-.59.44-.87.66-.92.68-1.89,1.32-2.9,1.91l-.12.02h-.46c-11.94,0-24.46-5.43-35.3-15.32-2.94-2.69-5.76-5.67-8.55-9.04l38.63-48.67-247.01-8.91-34.46,42.07-40.67,49.65-97.07,118.5,143.81-8.82c.79-1.83,1.67-3.62,2.63-5.38.89,3.24,2.11,6.42,3.66,9.48,8.9,17.56,26.72,27.7,45.19,27.7,7.67,0,15.46-1.75,22.77-5.45,12.4-6.29,21.47-17.08,25.53-30.39.3-.99.57-1.99.8-2.99,2.79-11.66,1.37-23.82-4.08-34.58-1.7-3.35-3.73-6.46-6.06-9.3-2.42-2.95-5.15-5.59-8.15-7.9-.03-.02-.05-.04-.08-.06-4.48-3.44-9.55-6.13-15.08-7.94-12.83-4.21-26.54-3.16-38.59,2.95-8.15,4.13-14.86,10.21-19.66,17.67l-1.28-14.16c-1.25-13.74,3.51-27.18,13.04-36.88,13.54-13.77,32.16-23.63,55.34-29.32,18.2-4.47,35.02-6.79,49.98-6.89h.32c16.6,0,31.65,8.83,39.95,22.77-13.84-6.91-30.66-7.42-45.48.09-12.32,6.24-21.36,16.94-25.44,30.13-1.86,5.99-2.57,12.15-2.17,18.25h0c.21,3.37.77,6.7,1.66,9.96.89,3.3,2.13,6.52,3.7,9.62,6.1,12.04,16.53,20.99,29.37,25.19,5.18,1.7,10.49,2.54,15.79,2.54,7.83,0,15.61-1.84,22.8-5.48,12.4-6.29,21.47-17.08,25.52-30.39,3.81-12.54,2.65-25.88-3.27-37.57-.3-.6-.61-1.19-.94-1.77-.32-.59-.67-1.17-1.02-1.74.65.19,1.29.38,1.93.59,1.68.53,3.33,1.14,4.94,1.8l19.32-24.34,17.49-22.04c2.65,3.08,5.34,5.87,8.14,8.43,12.7,11.59,27.6,17.94,42.05,17.94h.03c1.58,2.04,4.91,6.14,9.27,10.36,8.52,8.24,16.57,12.73,23.93,13.36.36.03.71.04,1.05.04,3.27,0,6.13-1.33,8.15-3.82,7.67-9.46.63-35.56-1.71-43.33ZM448.33,297.13c.26-1.31.59-2.61.99-3.9.86-2.78,2-5.43,3.39-7.9,3.89-6.95,9.74-12.58,17.02-16.27,5.77-2.93,12.01-4.4,18.3-4.4,4.24,0,8.51.67,12.66,2.03,1.93.63,3.79,1.4,5.58,2.29,3.8,1.9,7.26,4.37,10.25,7.34,3.1,3.04,5.71,6.61,7.73,10.59,4.74,9.35,5.68,20.02,2.65,30.06,0,.03-.01.05-.02.08-2.68,8.79-8.1,16.21-15.48,21.37.02-.48.03-.97.03-1.46,0-7.24-1.85-14.05-5.09-19.99-7.08-12.93-20.81-21.7-36.6-21.7-8.11,0-15.67,2.32-22.07,6.33.14-1.49.36-2.99.66-4.47ZM619.09,270.33c-2.64,8.64-7.91,15.96-15.09,21.11.01-.51.03-1.01.03-1.52,0-14.45-7.35-27.18-18.51-34.66h-.01c-4.28-2.87-9.12-4.97-14.33-6.09h-.01c-2.85-.62-5.8-.94-8.83-.94-8.27,0-15.97,2.42-22.46,6.57.26-2.78.8-5.56,1.65-8.29,3.28-10.58,10.53-19.16,20.41-24.17,5.86-2.97,12.11-4.38,18.27-4.38,11.16,0,22.02,4.62,29.76,12.92,2.53,2.72,4.73,5.83,6.49,9.31.83,1.63,1.53,3.29,2.12,4.99,2.83,8.08,3.03,16.84.51,25.15ZM649.61,194.13l-28,35.28c-.89-1.26-1.83-2.48-2.82-3.64h0s-2.28-6.7-2.28-6.7c-7.86-23.08-29.35-38.51-53.56-38.51h-.38c-15.75.11-33.34,2.52-52.3,7.17-25.01,6.15-45.22,16.92-60.09,32.02-11.6,11.8-17.38,28.13-15.87,44.8l3.26,35.86.17-.05c-.46,4.52-.28,9.06.5,13.52l-48.31,2.97-74.82,4.59,74.82-91.34,53.6-65.43,26.12-31.89,222.29,8.01-42.33,53.34Z"></path><path class="st2" d="M562.23,421.21l-22.9,11.6c-.59.3-1.19.59-1.78.87-.6.28-1.2.55-1.8.81-1.2.53-2.42,1.02-3.65,1.47-.61.22-1.22.44-1.84.64-.51.18-1.03.34-1.54.5-.22.07-.44.13-.66.2h0l-83.54,53.82v322.98l22.95-13.25,161.8-93.44v-320.16l-67.03,33.96ZM482.07,681.78l-5.42-8.41,112.22-72.29,5.41,8.4-112.21,72.3ZM482.07,631.75l-5.42-8.41,112.22-72.29,5.41,8.4-112.21,72.3ZM482.07,581.72l-5.42-8.41,112.22-72.29,5.41,8.4-112.21,72.3Z"></path><polygon points="594.28 559.45 482.07 631.75 476.65 623.34 588.87 551.05 594.28 559.45"></polygon><polygon points="594.28 609.48 482.07 681.78 476.65 673.37 588.87 601.08 594.28 609.48"></polygon><polygon points="594.28 509.42 482.07 581.72 476.65 573.31 588.87 501.02 594.28 509.42"></polygon><path d="M826.66,716.87l-166.95.18v-145.74h116.93v-10h-116.93v-149.63l72.74-59.4-6.32-7.74-66.42,54.23v-28.95c.42-.35.83-.71,1.24-1.08.21-.18.41-.36.61-.55.12-.1.23-.2.34-.31.34-.31.67-.62,1-.94.08-.08.16-.16.24-.23l.02-.02c.2-.19.39-.38.58-.57.2-.2.39-.4.58-.6.38-.38.74-.76,1.1-1.15.36-.39.72-.77,1.07-1.17l.18-.21c.26-.28.51-.58.76-.87.04-.05.08-.09.12-.14.18-.22.36-.43.54-.65.23-.27.46-.55.68-.84.1-.12.19-.25.29-.37.22-.27.43-.55.64-.82.02-.04.05-.07.07-.1.22-.29.44-.59.65-.88.89-1.21,1.73-2.45,2.54-3.73.18-.28.35-.56.52-.85.18-.28.34-.57.51-.86.03-.04.07-.09.09-.14.03-.05.06-.1.09-.15.01-.01.02-.03.02-.04.18-.3.35-.6.52-.91.18-.32.35-.64.53-.96h.01c.3-.57.6-1.14.88-1.72.27-.54.54-1.09.8-1.65.25-.52.48-1.04.71-1.56.03-.07.07-.15.1-.22.22-.51.43-1.03.64-1.54.02-.04.03-.08.04-.11.19-.45.36-.91.53-1.37.05-.1.08-.2.12-.3.25-.66.48-1.33.71-2.01.73-2.18,1.35-4.37,1.85-6.58.2-.89.38-1.77.55-2.66.73-3.99,1.1-8.02,1.1-12.04,0-.62-.01-1.24-.03-1.86-.03-1.24-.1-2.48-.21-3.72,0-.08,0-.16-.02-.24-.04-.52-.1-1.04-.15-1.55-.01-.04-.02-.08-.02-.11-.07-.6-.14-1.2-.23-1.8h0c-.09-.62-.18-1.23-.29-1.84-.1-.61-.22-1.22-.34-1.83h0c-.1-.49-.2-.97-.31-1.45-.05-.24-.1-.47-.16-.7-.12-.5-.24-1-.37-1.5-.13-.49-.26-.98-.4-1.47-.03-.12-.07-.23-.1-.34-.1-.34-.2-.68-.31-1.02-.08-.26-.16-.51-.24-.77-.06-.18-.11-.36-.18-.53-.12-.38-.25-.77-.39-1.15-.14-.42-.29-.84-.45-1.25-.25-.68-.52-1.35-.8-2.03-.24-.58-.48-1.16-.74-1.73-.06-.14-.13-.29-.19-.43-.25-.54-.51-1.09-.77-1.63,0-.01,0-.02,0-.03-.16-.33-.33-.66-.51-1.02l-11.57-22.84c-.22-.44-.45-.88-.69-1.31-.21-.4-.42-.79-.64-1.18-.02-.04-.04-.08-.07-.12-.1-.18-.2-.36-.31-.54-.24-.42-.48-.83-.73-1.23-.92-1.52-1.89-2.99-2.92-4.42-.36-.5-.72-.98-1.09-1.47-.02-.02-.04-.05-.06-.07-1.1-1.42-2.24-2.81-3.44-4.14h0s-7.41,6.66-7.41,6.66c3.33,3.7,6.18,7.85,8.45,12.34l11.58,22.85c.13.26.26.52.4.82,13.43,27.59,2.08,61.32-25.3,75.19l-2.99,1.51-10,5.07-28.63,14.51-.04.02-35.16,17.81-30.62,15.51c-3.51,1.78-7.17,3.18-10.91,4.19-2.72.74-5.5,1.27-8.31,1.58l-1.43.14c-1.36.12-2.76.19-4.14.21l.09,6.95-4.58,2.95-66.02,42.54-199.75-128.69v27.08l-20.45-11.82v280.09s.03-.02.04-.03v9.46l4.77-3.65,3.07-2.36h-.01c.72-.54,1.43-1.04,2.13-1.53,3.79-2.67,7.27-4.87,10.45-6.68,3.76-2.14,7.09-3.73,10-4.88,8.11-3.21,12.91-2.99,14.4-1.74,1.9,1.6,3.32,6.15-.65,18.83-2.99,9.57-8.14,20.97-13.75,33.11-.57,1.24-1.15,2.49-1.73,3.74-2.56,5.53-5.08,10.98-7.44,16.29-.28.63-.56,1.26-.83,1.88-1.64,3.76-3.2,7.43-4.6,11-1.3,3.29-2.46,6.48-3.46,9.55-2.68,8.2-4.18,15.55-3.71,21.59.07.83.16,1.64.3,2.42.06.33.12.65.19.97.03.11.05.22.08.33.08.33.16.65.26.96l7.82-2.35c-.41-1.35-.6-2.9-.6-4.63,0-.38.01-.78.03-1.18v-.08c.02-.4.05-.81.09-1.23.13-1.41.35-2.9.66-4.48.07-.36.15-.73.23-1.1.11-.49.22-1,.35-1.51.14-.57.28-1.14.44-1.73.12-.46.25-.92.39-1.4.15-.53.31-1.07.48-1.62.07-.26.15-.51.23-.77l162,93.66h.01l31.32,18.12,2.24,1.17,5,2.59,5-2.56,1.5-.77,30.53-17.65,179.51-103.79,170.62-.19v-10ZM239.76,635.1c-3.37,1.73-6.88,3.77-10.45,6.07v-254.81l10.45,6.04v242.7ZM434.51,837.82l-28.26-16.34-163.92-94.78c1.22-3.16,2.57-6.42,3.99-9.72l154.03,88.94,34.16,19.73v12.17ZM434.51,814.1l-184.11-106.32c1.67-3.68,3.37-7.37,5.04-10.97,13.79-29.78,25.71-55.5,13.98-65.36-.28-.23-.57-.46-.87-.66-.15-.11-.31-.2-.46-.3-.17-.11-.35-.21-.53-.3-.04-.03-.09-.05-.13-.07-.03-.02-.07-.03-.1-.05-.54-.3-1.11-.55-1.7-.75-.21-.07-.42-.14-.64-.2-.28-.09-.56-.16-.85-.22-.25-.07-.5-.12-.76-.16-.14-.03-.29-.05-.44-.06-.46-.07-.93-.12-1.41-.15-.31-.02-.63-.03-.95-.03-1.44,0-2.98.15-4.62.46-1.93.36-4,.96-6.2,1.79v-258.65l184.75,119.02v322.98ZM629.26,707.41l-161.8,93.44-22.95,13.25v-322.98l83.54-53.82h0c.22-.07.44-.13.66-.2.51-.16,1.03-.32,1.54-.5.62-.2,1.23-.42,1.84-.64,1.23-.45,2.45-.94,3.65-1.47.6-.26,1.2-.53,1.8-.81.59-.28,1.19-.57,1.78-.87l22.9-11.6,67.03-33.96v320.16Z"></path><path class="st2" d="M434.51,825.65v12.17l-28.26-16.34-163.92-94.78c1.22-3.16,2.57-6.42,3.99-9.72l154.03,88.94,34.16,19.73Z"></path><path class="st2" d="M602.9,213.33c-13.84-6.91-30.66-7.42-45.48.09-12.32,6.24-21.36,16.94-25.44,30.13-1.86,5.99-2.57,12.15-2.17,18.25h0c.21,3.37.77,6.7,1.66,9.96.21.78.44,1.56.69,2.33l-3.13,1.51c-.61-.86-1.25-1.7-1.92-2.51-2.42-2.95-5.15-5.59-8.15-7.9-.03-.02-.05-.04-.08-.06-4.48-3.44-9.55-6.13-15.08-7.94-12.83-4.21-26.54-3.16-38.59,2.95-8.15,4.13-14.86,10.21-19.66,17.67l-1.28-14.16c-1.25-13.74,3.51-27.18,13.04-36.88,13.54-13.77,32.16-23.63,55.34-29.32,18.2-4.47,35.02-6.79,49.98-6.89h.32c16.6,0,31.65,8.83,39.95,22.77Z"></path><g><polygon points="314.39 634.1 314.39 645.53 287.2 645.53 287.2 484.96 298.63 484.96 298.63 496.4 310.07 496.4 310.07 507.83 298.63 507.83 298.63 634.1 314.39 634.1"></polygon><rect x="321.5" y="519.27" width="11.44" height="11.43"></rect><rect x="332.94" y="530.7" width="11.43" height="11.44"></rect><rect x="344.37" y="542.1" width="11.44" height="11.43"></rect><rect x="355.81" y="553.53" width="11.43" height="11.44"></rect><rect x="367.24" y="564.97" width="11.44" height="11.43"></rect><rect x="378.5" y="576.4" width="11.43" height="11.43"></rect><rect x="337.26" y="622.66" width="11.32" height="22.65"></rect><polygon points="401.36 587.83 401.36 610.67 371.34 610.67 371.34 622.1 371.23 622.1 371.23 622.11 359.91 622.11 359.91 599.24 389.93 599.24 389.93 587.83 401.36 587.83"></polygon><polygon points="382.55 622.1 382.55 644.74 371.23 644.74 371.23 622.11 371.34 622.11 371.34 622.1 382.55 622.1"></polygon><rect x="382.55" y="644.74" width="11.32" height="22.65"></rect><polygon points="382.55 667.39 382.55 678.71 359.91 678.71 359.91 667.95 348.58 667.95 348.58 645.31 359.91 645.31 359.91 667.39 382.55 667.39"></polygon><rect x="325.83" y="611.23" width="11.43" height="11.43"></rect><rect x="310.07" y="507.83" width="11.43" height="11.44"></rect><rect x="314.39" y="622.66" width="11.44" height="11.44"></rect></g></g></g></g></svg>